<svg width="200" height="200" viewBox="0 0 200 200" xmlns="http://www.w3.org/2000/svg" style="">
 <g>
  <title>background</title>
  <path fill="none" id="canvas_background" height="202" width="202" d="M-1 -1 L201 -1 L201 201 L-1 201 Z" class="qLLCyrhR_0"></path>
 </g>
 <g>
  <title>Layer 1</title>
  <path d="m167.804733,28.536736c-0.487808,1.463411 -3.414627,4.878036 -9.756073,11.21949c-9.756073,9.756073 -26.858231,23.151047 -48.78038,41.951126c-24.617859,21.111877 -40.893097,42.348923 -50.731598,58.536453c-8.614052,14.172913 -17.980209,31.929565 -23.414581,40.975525c-3.70899,6.17392 -5.728197,8.948563 -8.292665,10.731689c-2.335308,1.623795 -6.513479,3.434296 -4.878036,4.878036c1.318531,1.163971 4.730701,-8.18927 20.487757,-27.317017c16.899986,-20.515152 39.40937,-38.732513 56.585243,-58.536453c15.980499,-18.425674 20.341606,-30.916153 37.07309,-57.560856c10.073685,-16.042225 21.671005,-29.363863 32.195053,-36.097483c6.431519,-4.115089 9.554016,-3.700369 10.243881,-4.390234c0.344925,-0.34493 -0.518326,3.18972 -4.878036,10.243881c-9.748611,15.773594 -27.344513,36.120544 -52.195015,58.048649c-24.915016,21.985031 -56.276344,49.09552 -72.194962,64.390106c-12.446358,11.958466 -19.904482,20.04248 -24.390188,24.390198c-1.751377,1.697495 -2.840847,2.676208 -3.902431,2.926819c-0.474754,0.112076 -0.487804,0.487808 0,0l1.463409,-1.951218l1.463413,-3.414627" id="svg_29" fill-opacity="null" stroke-opacity="null" stroke-width="5" stroke="#ffffff" fill="none" class="qLLCyrhR_1"></path>
  <path d="m60.487896,33.414776c0,0.975605 0.712204,4.547646 4.87804,11.219486c7.810684,12.509274 18.541878,25.850098 29.756035,42.926727c10.248749,15.606537 24.323196,38.497452 41.951118,57.073059c16.627319,17.521179 20.014832,22.366241 23.414597,21.463379c1.05423,-0.279968 0.692825,-1.052155 -0.487808,-3.902435c-2.504501,-6.046417 -19.216858,-25.164612 -41.951126,-48.292587c-25.165703,-25.601532 -47.917,-51.963947 -62.438892,-75.121788c-9.514877,-15.173239 -9.719879,-27.074306 -12.195095,-26.829212c-0.97086,0.096134 5.40271,11.094713 18.04874,26.341408c20.741482,25.006973 46.093555,46.581394 69.268139,69.268147c20.704529,20.268677 39.485245,40.576385 54.634048,58.536469c8.055359,9.550262 9.912354,14.62149 9.756073,13.658508c-0.247101,-1.522675 -1.235016,-4.531311 -3.414642,-7.804871c-4.434052,-6.659454 -16.414032,-18.730682 -34.634064,-34.634064c-23.199158,-20.249466 -53.539612,-50.447784 -60.487671,-59.024277c-14.649231,-18.0826 -16.585335,-26.341408 -18.536545,-29.26823l0,-0.487804l-0.487808,0" id="svg_30" fill-opacity="null" stroke-opacity="null" stroke-width="5" stroke="#ffffff" fill="none" class="qLLCyrhR_2"></path>
 </g>
<style data-made-with="vivus-instant">
    .qLLCyrhR_0 {
        stroke-dasharray: 808 810;
        stroke-dashoffset: 809;
        animation: qLLCyrhR_draw 124ms ease-in-out 0ms forwards;
    }

    .qLLCyrhR_1 {
        stroke-dasharray: 704 706;
        stroke-dashoffset: 705;
        animation: qLLCyrhR_draw 370ms ease-in-out 124ms forwards;
    }

    .qLLCyrhR_2 {
        stroke-dasharray: 770 772;
        stroke-dashoffset: 771;
        animation: qLLCyrhR_draw 404ms ease-in-out 495ms forwards;
    }

    @keyframes qLLCyrhR_draw {
        100% {
            stroke-dashoffset: 0;
        }
    }

    @keyframes qLLCyrhR_fade {
        0% {
            stroke-opacity: 1;
        }

        92.5925925925926% {
            stroke-opacity: 1;
        }

        100% {
            stroke-opacity: 0;
        }
    }
</style></svg>