<svg width="200" height="200" viewBox="0 0 200 200"  xmlns="http://www.w3.org/2000/svg" style="">
 <!-- Created with Method Draw - http://github.com/duopixel/Method-Draw/ -->

 <g>
  <title>background</title>
  <path width="202" height="202" id="canvas_background" fill="none" d="M-1 -1 L201 -1 L201 201 L-1 201 Z" class="NFhadApl_0"></path>
 </g>
 <g>
  <title>Layer 1</title>
  <path fill="none" stroke="#ffffff" stroke-width="5" fill-opacity="null" id="svg_32" d="m169.927917,50.994671c-0.5242,-0.5242 -1.139145,-1.495392 -1.572617,-2.09679c-0.685349,-0.950901 -0.439117,-2.535942 -2.096771,-4.1936c-1.657669,-1.657669 -3.584839,-3.234562 -5.24202,-4.717793c-2.501022,-2.238529 -4.060822,-3.864059 -6.290375,-5.241997c-1.994171,-1.232471 -4.765594,-3.038101 -8.387192,-4.717802c-3.190033,-1.47953 -5.128906,-2.964119 -9.435593,-4.19359c-2.570221,-0.733749 -5.758453,-1.62998 -9.4356,-2.0968c-4.709038,-0.59782 -8.925682,-0.17831 -13.105003,-0.5242c-3.177696,-0.262999 -5.781891,-0.78039 -7.862984,-0.524199c-2.145134,0.26408 -4.720665,1.028679 -8.387192,1.572599c-6.820122,1.011749 -10.954773,2.30596 -14.677589,3.145201c-3.110519,0.701199 -4.467079,1.455299 -6.81459,2.620989c-3.418015,1.69729 -6.231964,2.72275 -8.911385,4.193602c-3.082535,1.692139 -4.764729,3.077999 -6.290398,4.1936c-2.709438,1.981178 -4.46624,4.408348 -6.29039,6.29039c-2.33606,2.410191 -4.93462,3.997189 -6.81459,6.29039c-1.198257,1.461639 -2.815659,3.536648 -4.1936,5.76619c-1.23246,1.994179 -3.08329,4.755959 -4.7178,7.338802c-2.021378,3.194191 -3.463398,5.334106 -4.717789,7.862984c-1.358231,2.738243 -3.577461,5.274162 -4.7178,8.387207c-0.970951,2.65065 -1.80765,4.091713 -2.620991,6.29039c-0.74987,2.027069 -0.997759,4.202454 -1.572599,7.338783c-0.48188,2.629112 -1.048401,4.193604 -1.048401,6.290405c0,1.572601 0,4.193596 0,6.29039c0,2.096794 0,4.193596 0,6.29039c0,2.096809 0.26082,4.154709 0.5242,6.814598c0.20661,2.086601 0.5242,4.193588 1.048401,6.29039c0.524199,2.096802 1.671329,4.164063 2.0968,5.766205c0.686039,2.583359 1.335169,4.776688 2.0968,7.338791c0.804369,2.705872 2.196539,4.655685 3.145189,6.290405c1.17667,2.027603 2.096802,3.669388 3.145199,5.241989c1.048401,1.572586 1.946953,3.256149 3.145203,4.717789c0.939987,1.146606 1.267948,2.316376 2.09679,3.145203c0.828827,0.828842 1.649559,2.025116 2.620998,3.145203c1.717281,1.980042 3.381351,2.857132 4.7178,4.193573c1.336449,1.336472 2.09679,2.096802 3.669392,3.145218c1.572598,1.048386 2.543797,1.66333 3.145199,2.096802c0.950901,0.685349 2.666828,0.940369 5.242001,2.096786c2.13855,0.960342 4.12122,2.346039 7.338787,3.145203c3.094543,0.7686 6.169792,1.860184 8.387184,2.620987c2.528229,0.867447 4.678909,1.309219 7.338799,1.572601c3.12989,0.309906 6.29039,0.5242 9.435593,0.5242c3.669395,0 5.76619,0 8.387199,0c2.096786,0 4.181709,-0.050034 6.29039,-0.5242c2.60778,-0.586411 5.800858,-0.347183 8.911385,-1.048401c3.722801,-0.839218 5.858955,-1.229324 8.387192,-2.096802c3.326103,-1.141205 5.311211,-1.968521 7.338799,-3.145187c1.63472,-0.948669 4.256256,-1.977249 7.338791,-3.669403c2.679413,-1.47084 5.926285,-2.286392 8.387192,-3.669388c2.284897,-1.284088 4.046295,-2.783615 5.766205,-4.193604c2.923264,-2.396515 4.619583,-3.253601 5.76619,-4.193588c1.461639,-1.198257 1.952118,-2.213547 3.669403,-4.193604c1.457153,-1.680115 2.78949,-4.093475 3.669388,-5.76619c1.314209,-2.498337 2.723602,-4.661026 4.717789,-8.387192c1.106171,-2.06691 2.184845,-4.676041 3.145203,-6.81459c1.156418,-2.57518 2.096802,-4.193604 2.621002,-6.290405c0.5242,-2.096802 1.098419,-4.70591 1.572601,-6.814598c0.586426,-2.60778 0.393646,-5.245239 0.5242,-7.862991c0.262436,-5.261589 0.785385,-7.306259 1.048386,-10.483978c0.25943,-3.134491 -0.738449,-6.305702 -1.048386,-9.435593c-0.263397,-2.659904 -0.308014,-5.775131 -0.5242,-8.387199c-0.263,-3.177719 -1.540726,-5.254974 -2.621017,-7.862991c-1.52774,-3.688293 -2.096786,-5.76619 -3.145187,-7.862991c-1.048386,-2.096786 -1.767258,-4.060837 -3.145187,-6.29039c-1.232452,-1.994167 -1.7939,-3.76939 -2.621002,-5.76619c-1.169708,-2.823917 -3.139099,-5.16177 -6.29039,-8.387199c-1.83165,-1.874741 -3.669403,-3.145199 -5.76619,-4.717789c-2.096817,-1.572601 -4.39035,-3.63797 -7.338791,-5.242001c-2.912262,-1.584351 -6.34874,-2.434929 -9.959793,-3.669399c-2.671127,-0.913151 -5.739838,-2.223402 -10.483994,-3.145191c-3.130051,-0.60817 -6.792831,-0.7859 -11.53241,-1.048401c-4.710556,-0.260899 -8.911377,-0.524199 -13.10498,-0.524199c-3.145203,0 -5.78405,-0.36158 -9.435593,0c-2.659889,0.26338 -5.76619,1.048399 -8.911385,2.0968c-6.29039,2.09679 -10.532585,4.069641 -14.677589,5.76619c-4.778023,1.95565 -7.560703,3.369678 -10.483982,5.766201c-2.866508,2.349968 -5.88121,5.06638 -9.959789,7.862988c-4.323292,2.96439 -8.510601,5.627693 -12.056591,8.911392c-4.35144,4.029568 -6.84256,7.322208 -8.38719,9.959789c-2.13571,3.646889 -4.590679,7.16275 -6.2904,11.532387c-1.383471,3.556633 -2.620991,7.338791 -3.145191,11.008194c-0.524199,3.669388 -0.524199,7.338799 -0.524199,13.629189c0,1.572594 -0.216181,5.775124 0,8.387192c0.262989,3.177711 1.65004,6.260727 2.620998,8.911392c1.140331,3.113037 2.296282,6.166183 4.19359,9.435577c1.765001,3.041412 2.87961,6.797592 6.81459,12.056595c2.22065,2.96785 6.045502,4.939209 8.9114,7.863022c2.34956,2.397003 4.639561,4.303696 6.81459,5.76619c2.536491,1.705536 5.662621,3.372101 8.911388,4.717789c3.062962,1.268707 6.784969,2.20665 10.48399,3.145187c4.684433,1.188583 7.862991,1.572601 10.483994,2.096802c2.620987,0.5242 4.678902,0.785019 7.338791,1.048401c3.129875,0.309891 6.81459,0.5242 10.483978,0.5242c3.669395,0 7.85276,-0.077591 11.532402,-0.5242c5.229744,-0.63475 8.387177,-1.572601 11.532387,-2.621002c3.145187,-1.048401 6.56411,-3.057007 9.959785,-4.717789c2.97821,-1.456589 5.76619,-2.621002 8.387222,-4.193588c2.620972,-1.572601 4.637589,-4.170288 7.338776,-6.81459c4.884018,-4.781189 8.073776,-6.051163 10.483978,-8.387222c1.88205,-1.824127 4.193604,-3.145187 5.766205,-5.241989c1.572601,-2.096786 2.972839,-4.305038 4.717789,-6.81459c1.916168,-2.755806 3.338913,-5.365341 5.241989,-9.959785c1.345673,-3.248772 2.358017,-6.257881 2.621002,-9.4356c0.302658,-3.656891 0.785645,-6.786659 1.048401,-10.483986c0.222946,-3.137283 -0.27533,-6.858856 -1.048401,-10.483994c-0.795898,-3.732307 -2.541779,-7.887405 -4.193604,-13.10498c-1.000641,-3.160721 -1.977264,-6.353065 -3.669388,-9.4356c-1.470856,-2.679405 -3.957199,-5.035667 -5.766205,-7.862988c-1.263458,-1.974682 -3.004257,-4.866749 -5.766174,-7.338791c-2.501038,-2.238541 -5.587616,-4.962971 -8.387207,-6.81459c-6.455505,-4.269608 -10.527298,-6.13023 -14.677582,-7.338799c-3.183121,-0.926922 -6.794991,-1.83437 -12.056587,-2.09679c-4.711952,-0.23502 -13.104988,-0.5242 -21.49218,-0.5242c-9.959793,0 -17.8097,-1.31036 -25.685783,-1.572601c-6.286896,-0.209328 -10.529816,0.41618 -13.104977,1.572601c-3.20784,1.440529 -6.09399,2.837811 -8.387199,4.717789c-2.923279,2.396511 -6.689548,3.69268 -9.435589,6.29039c-1.90403,1.801189 -2.797913,2.783512 -3.669392,4.1936c-0.38974,0.630611 -1.048401,0.5242 -2.096802,1.572601l-1.572598,1.572601l-1.572601,1.048397" class="NFhadApl_1"></path>
 </g>
<style data-made-with="vivus-instant">
.NFhadApl_0 {
    stroke-dasharray: 808 810;
    stroke-dashoffset: 809;
    animation: NFhadApl_draw 105ms ease-in-out 0ms forwards;
    animation-iteration-count: 1;
}

.NFhadApl_1 {
    stroke-dasharray: 1112 1114;
    stroke-dashoffset: 1113;
    animation: NFhadApl_draw 694ms ease-in-out 105ms forwards;
    animation-iteration-count: 1;
}

@keyframes NFhadApl_draw {
    100% {
        stroke-dashoffset: 0;
    }
}

@keyframes NFhadApl_fade {
    0% {
        stroke-opacity: 1;
    }

    92.5925925925926% {
        stroke-opacity: 1;
    }

    100% {
        stroke-opacity: 0;
    }
}
</style></svg>